<svg width="99" height="40" fill="none" xmlns="http://www.w3.org/2000/svg"><path fill-rule="evenodd" clip-rule="evenodd" d="M24.88 19.25V0h5.027v12.54s2.146-3.744 9.028-3.744c7.365 0 11.715 5.246 11.715 11.76 0 .78-.058 1.532-.172 2.256 1.199-3.352 5.304-5.006 12.061-5.006h6.129v-1.092c0-3.062-2.668-4.661-6.129-4.661-5.316 0-5.587 3.393-5.587 3.393h-5.22c0-.936.678-6.728 11.175-6.728 3.587 0 7.523.763 9.508 3.758L70.91 9.634h5.877L85.235 26.7l8.43-17.065H99L83.67 40h-5.587l4.427-8.464-9.459-17.859c.427 1.032.666 2.267.662 3.739v10.96c0 1.268.175 3.257.175 3.257h-4.64s-.116-1.599-.116-3.218c0 0-2.359 4.077-9.686 4.077-5.355 0-9.337-2.614-9.337-7.412 0-.254.012-.503.035-.744-1.395 4.92-5.57 8.117-11.209 8.117-6.631 0-9.067-3.843-9.067-3.843 0 1.444-.174 3.043-.174 3.043h-4.93s.117-2.223.117-3.803v-5.968H5.104c0 4.213 3.17 7.196 7.559 7.196 5.393 0 6.495-3.822 6.495-3.822h5.162s-.677 7.099-11.348 7.099C3.905 32.355 0 27.85 0 20.712c0-9.01 5.819-11.994 12.798-11.994 9.473 0 12.083 6.397 12.083 10.531zm-5.22-.703c0-3.881-2.86-6.455-7.036-6.455-3.673 0-7.404 2.34-7.385 6.455h14.422zm18.018-6.319c4.737 0 7.753 3.55 7.753 8.308 0 5.11-3.48 8.445-7.714 8.445-5.065 0-7.79-3.979-7.79-8.406 0-4.095 2.435-8.347 7.751-8.347zm31.01 8.854v1.463c0 1.892-1.16 6.611-7.985 6.611-3.75 0-5.355-1.891-5.355-4.076 0-3.959 5.394-3.998 13.34-3.998z" fill="#B9B9B9"/></svg>